<svg width="52" height="54" viewBox="0 0 52 54" fill="none" xmlns="http://www.w3.org/2000/svg">
<path fill-rule="evenodd" clip-rule="evenodd" d="M11.6342 6.54853C5.44482 10.1503 0.2952 13.1971 0.190416 13.3193C0.0324252 13.5037 0 13.7599 0 14.8215C0 15.9723 0.0249173 16.1386 0.247432 16.4692C0.617057 17.0187 1.14631 17.3328 1.70265 17.3328H2.17619V27.7216V38.1104L1.52257 38.2457C1.02618 38.3484 0.778639 38.4713 0.494103 38.7564C0.0331869 39.2182 -0.0295962 39.5283 0.0175182 41.1116C0.0502698 42.212 0.0836742 42.392 0.315656 42.718C0.845992 43.4628 1.02139 43.4905 5.22285 43.4925C7.43287 43.4936 9.1402 43.4489 9.37414 43.3838C9.87303 43.2449 10.5185 42.5451 10.6129 42.0406C10.6519 41.8328 10.6669 41.1466 10.6463 40.5156C10.6151 39.5594 10.571 39.3171 10.3813 39.061C10.0442 38.6057 9.53463 38.298 8.9797 38.2146L8.48712 38.1406V27.7367V17.3328H23.1764H37.8656V26.106V34.8792L37.4184 35.1078L36.9711 35.3364L37.1464 35.0857C37.2951 34.873 37.3216 34.456 37.3216 32.3219C37.3216 29.4547 37.3473 29.5473 36.3934 28.9757L35.7983 28.6191V26.031V23.443L36.1129 23.28C36.6365 23.0088 36.7595 22.2351 36.3396 21.8543C36.1036 21.6404 23.3549 18.2038 22.8083 18.2068C22.6218 18.2077 19.5313 18.991 15.9406 19.9472C8.90441 21.8211 9.03117 21.7743 9.03117 22.5039C9.03117 23.0856 9.34759 23.2641 11.289 23.7789L13.0571 24.2477V27.4999C13.0571 31.1895 13.0788 31.3074 13.7923 31.4935C14.2119 31.6029 18.6217 32.4441 20.4561 32.7646C21.9105 33.0187 23.7969 32.9973 25.4614 32.7078C28.3344 32.2081 31.8956 31.5042 32.0968 31.3964C32.2124 31.3343 32.3566 31.1983 32.4172 31.0942C32.4947 30.961 32.5283 31.4645 32.5307 32.7906C32.5348 35.1422 32.6414 35.4287 33.5124 35.4287C33.7075 35.4287 34.0231 35.268 34.3746 34.9896L34.9291 34.5505L35.5256 35.0017C36.0194 35.3753 36.1878 35.4452 36.5042 35.4082C36.7143 35.3836 36.8863 35.3712 36.8863 35.3806C36.8863 35.3901 36.6105 35.5813 36.2734 35.8055C34.2762 37.1341 32.7076 39.539 32.1827 42.0773C31.9106 43.3935 31.9629 45.2931 32.3075 46.6024C33.0193 49.3066 35.0442 51.771 37.5933 53.0356C39.1825 53.8239 40.0067 54.0021 42.0548 54C43.6384 53.9983 43.8842 53.9712 44.775 53.6997C48.1273 52.6778 50.687 50.0931 51.6958 46.7114C52.0244 45.6101 52.1023 43.3064 51.8528 42.0686C51.4644 40.1413 50.5847 38.4919 49.1818 37.0606C47.8671 35.7192 46.7849 35.0415 44.9926 34.4367L44.1222 34.143V25.7652V17.3873L44.6858 17.3184C45.8765 17.1728 46.3528 16.4522 46.3528 14.7962C46.3528 14.2185 46.2991 13.6278 46.2336 13.4837C46.1152 13.2233 45.6649 12.9558 28.8264 3.14334C25.6648 1.30094 23.3196 0 23.1599 0C22.9972 0 18.3581 2.63579 11.6342 6.54853ZM32.4319 7.31096C37.4775 10.2527 41.7313 12.7281 41.8846 12.8117C42.1241 12.9422 39.475 12.9639 23.1764 12.9656L4.18916 12.9676L4.7332 12.6477C11.1548 8.872 23.0442 1.97212 23.1357 1.96787C23.203 1.96471 27.3863 4.36918 32.4319 7.31096ZM22.5768 5.02019C21.8027 5.12408 21.0026 5.56721 20.4231 6.21288C18.7431 8.08505 19.372 11.0009 21.6833 12.0549C22.2383 12.308 22.5076 12.3631 23.1786 12.3605C24.6317 12.3548 25.8086 11.6046 26.4668 10.2645C26.7795 9.62788 26.8211 9.43897 26.8177 8.66837C26.8145 7.94824 26.7608 7.67909 26.5122 7.14024C25.8172 5.63316 24.2598 4.79421 22.5768 5.02019ZM24.0032 6.96637C24.7069 7.28665 24.9717 7.75136 24.9717 8.6664C24.9717 9.29137 24.9257 9.49402 24.7178 9.78628C24.3321 10.3278 23.6974 10.6082 22.9897 10.5495C21.4202 10.419 20.704 8.62738 21.7322 7.40329C22.2762 6.75554 23.1643 6.58472 24.0032 6.96637ZM44.5574 15.1526V15.5341L23.1492 15.5616L1.74095 15.5892V15.1526V14.716L23.1492 14.7436L44.5574 14.771V15.1526ZM6.63737 27.7434V38.154H5.33165H4.02594V27.7434V17.3328H5.33165H6.63737V27.7434ZM42.3268 25.6564V33.9798L41.2659 34.0456C40.6824 34.0818 40.0949 34.1437 39.9602 34.1832L39.7154 34.255V25.7939V17.3328H41.0211H42.3268V25.6564ZM27.5287 21.2179C29.9525 21.8597 31.9731 22.4164 32.019 22.4551C32.0649 22.4938 30.0145 23.081 27.4625 23.76L22.8224 24.9945L18.1611 23.758C15.5974 23.078 13.5224 22.499 13.55 22.4712C13.6695 22.3516 22.7077 19.9742 22.9044 20.0107C23.024 20.0328 25.105 20.5761 27.5287 21.2179ZM34.0573 26.2595V28.6456L33.4324 29.017C33.0887 29.2213 32.7467 29.5088 32.6724 29.656C32.5613 29.876 32.5369 29.4181 32.5356 27.0844L32.534 24.2453L33.1596 24.0739C33.5038 23.9796 33.8465 23.8959 33.9213 23.888C34.0264 23.8768 34.0573 24.4156 34.0573 26.2595ZM19.0009 25.8331L22.8231 26.8434L26.6176 25.8326C28.7046 25.2767 30.4979 24.799 30.6026 24.771C30.78 24.7237 30.793 24.8957 30.793 27.2873C30.793 29.6376 30.7769 29.8593 30.6026 29.912C30.3304 29.9942 25.9286 30.8134 24.6997 31.0106C22.7809 31.3184 21.6705 31.211 16.539 30.2221L14.9613 29.9181L14.9321 27.3193C14.9089 25.2567 14.9314 24.7312 15.0409 24.7717C15.1168 24.7998 16.8988 25.2773 19.0009 25.8331ZM35.2647 30.3832C35.5782 30.5688 35.5806 30.5779 35.5806 31.6096V32.6489H34.9825H34.3844L34.3841 31.5993C34.3837 30.6341 34.4034 30.536 34.6286 30.3786C34.9366 30.1633 34.8927 30.163 35.2647 30.3832ZM44.1222 36.0317C45.6929 36.4485 47.4657 37.6121 48.481 38.8929C49.0718 39.6382 49.7465 40.9918 50.0146 41.9694C50.2788 42.9326 50.278 45.1269 50.0132 46.0934C49.286 48.7473 47.3711 50.8575 44.8552 51.7775C40.3052 53.4411 35.2937 50.8299 34.0412 46.1431C33.718 44.9336 33.7175 43.0944 34.0399 41.9377C34.913 38.806 37.28 36.59 40.4771 35.9113C41.3493 35.7261 43.2008 35.7873 44.1222 36.0317ZM45.4823 39.1593C45.2168 39.2452 44.4509 39.9266 42.9537 41.4091L40.8059 43.5358L39.9462 42.6975C39.4733 42.2365 38.9112 41.7859 38.697 41.6963C37.3136 41.1171 35.7267 42.0603 35.6047 43.534C35.5186 44.5733 35.6566 44.7939 37.6364 46.781C38.6302 47.7787 39.6147 48.6818 39.8242 48.7878C40.3674 49.063 41.29 49.0478 41.8508 48.7544C42.358 48.489 47.9232 42.8297 48.2297 42.2675C48.5107 41.7523 48.4818 40.8126 48.1668 40.2151C47.7005 39.3304 46.4607 38.8428 45.4823 39.1593ZM8.92236 40.8248V41.6423H5.33165H1.74095V40.8248V40.0072H5.33165H8.92236V40.8248ZM46.5486 41.0101C46.6204 41.082 46.6792 41.2087 46.6792 41.2917C46.6792 41.546 41.1145 47.2019 40.8643 47.2019C40.626 47.2019 37.3216 43.9821 37.3216 43.75C37.3216 43.5639 37.6333 43.2775 37.8357 43.2775C37.9304 43.2775 38.5512 43.8099 39.2153 44.4606C39.8794 45.1112 40.5087 45.674 40.614 45.7112C40.7193 45.7483 40.9151 45.7356 41.0493 45.6831C41.1833 45.6305 42.3444 44.5282 43.6294 43.2334C45.9461 40.8989 46.2253 40.6862 46.5486 41.0101Z" fill="#AC9376"/>
</svg>
