<svg width="47" height="54" viewBox="0 0 47 54" fill="none" xmlns="http://www.w3.org/2000/svg">
<path fill-rule="evenodd" clip-rule="evenodd" d="M2.93376 0.276197C2.67082 0.542831 2.66151 0.60572 2.66151 2.11721V3.68202L2.13597 3.88565C0.930863 4.35254 0 5.79709 0 7.20024C0 8.60339 0.930863 10.0479 2.13597 10.5148L2.66151 10.7185V11.7004V12.6823L2.13597 12.886C0.930863 13.3528 0 14.7974 0 16.2005C0 17.6037 0.930863 19.0482 2.13597 19.5151L2.66151 19.7188V20.7007V21.6826L2.13597 21.8863C0.930863 22.3531 0 23.7977 0 25.2008C0 26.604 0.930863 28.0485 2.13597 28.5154C2.6604 28.7186 2.66151 28.7202 2.66151 29.251C2.66151 29.7818 2.6604 29.7833 2.13597 29.9865C0.930863 30.4534 0 31.898 0 33.3011C0 34.7043 0.930863 36.1488 2.13597 36.6157L2.66151 36.8193V39.7342V42.6492L2.93376 42.9252C3.15722 43.152 3.3158 43.2014 3.82093 43.2014H4.43585V44.7253C4.43585 46.1934 4.44583 46.2594 4.7081 46.5254L4.98024 46.8016H16.4085H27.8368L27.4901 47.4249C27.1835 47.9759 27.0999 48.3384 26.77 50.5469C26.5646 51.9211 26.3959 53.1364 26.395 53.2475C26.3922 53.5854 26.8949 54.002 27.3032 54C27.6045 53.9984 28.0337 53.7075 29.7503 52.3406L31.8322 50.6829L32.9477 48.7422L34.0632 46.8016H36.7207H39.3782L39.6504 46.5254L39.9226 46.2493V41.4514V36.6536L43.429 30.5854C46.8386 24.6846 46.9368 24.4978 46.9909 23.8143C47.0849 22.6268 46.4412 21.5234 45.3959 21.0804C44.9294 20.8826 43.7911 20.881 43.3291 21.0774C42.6442 21.3685 42.261 21.8445 41.1235 23.8166L39.9781 25.8024L39.9226 14.4663L39.8672 3.13019L39.6054 2.91508C39.36 2.71359 39.1243 2.70009 35.8437 2.70009H32.3438L30.9865 1.35004L29.6292 0H16.4176H3.2059L2.93376 0.276197ZM28.3894 4.67397V7.54799L28.6617 7.82407L28.9338 8.10027H31.7668H34.5996V21.6042V35.1081L32.7976 38.2499L30.9955 41.3917L17.7157 41.3965L4.43585 41.4014V39.1103V36.8193L4.92568 36.6295C5.96078 36.2285 6.98646 34.9144 6.98646 33.9894C6.98646 33.2658 6.28027 32.8495 5.64118 33.1965C5.51919 33.2627 5.31925 33.5539 5.19693 33.8434C4.9676 34.3861 4.69379 34.7637 4.52956 34.7637C4.47799 34.7637 4.43585 33.4036 4.43585 31.7414V28.7191L4.92568 28.5293C5.96078 28.1282 6.98646 26.8141 6.98646 25.8891C6.98646 25.1655 6.28027 24.7492 5.64118 25.0962C5.51919 25.1625 5.31925 25.4536 5.19693 25.7431C4.9676 26.2858 4.69379 26.6634 4.52956 26.6634C4.47799 26.6634 4.43585 25.1008 4.43585 23.1911V19.7188L4.92568 19.529C5.96078 19.1279 6.98646 17.8138 6.98646 16.8888C6.98646 16.1652 6.28027 15.7489 5.64118 16.0959C5.51919 16.1622 5.31925 16.4533 5.19693 16.7428C4.9676 17.2855 4.69379 17.6631 4.52956 17.6631C4.47799 17.6631 4.43585 16.1005 4.43585 14.1908V10.7185L4.92568 10.5287C5.96078 10.1276 6.98646 8.81354 6.98646 7.88854C6.98646 7.16491 6.28027 6.74865 5.64118 7.09561C5.51919 7.16188 5.31925 7.45303 5.19693 7.74251C4.9676 8.28522 4.69379 8.66279 4.52956 8.66279C4.47799 8.66279 4.43585 7.11867 4.43585 5.23142V1.80006H16.4126H28.3894V4.67397ZM31.7718 4.72516L33.3213 6.30021H31.7426H30.1638V4.72516C30.1638 3.85888 30.177 3.1501 30.1929 3.1501C30.209 3.1501 30.9195 3.85888 31.7718 4.72516ZM38.1477 16.7349L38.1472 28.9697L37.2629 30.4885L36.3786 32.0073L36.3763 19.4187L36.374 6.8301L35.2439 5.66513L34.1139 4.50015H36.1311H38.1483L38.1477 16.7349ZM2.66151 7.20024C2.66151 8.02399 2.6166 8.66279 2.55871 8.66279C2.38549 8.66279 2.00323 8.09419 1.8676 7.63507C1.77035 7.30566 1.77035 7.09482 1.8676 6.76541C2.00323 6.30628 2.38549 5.73769 2.55871 5.73769C2.6166 5.73769 2.66151 6.37649 2.66151 7.20024ZM10.0311 10.1765C9.85945 10.3506 9.75887 10.5812 9.75887 10.8004C9.75887 11.0195 9.85945 11.2501 10.0311 11.4242L10.3033 11.7004H20.4049H30.5066L30.7787 11.4242C30.9504 11.2501 31.0509 11.0195 31.0509 10.8004C31.0509 10.5812 30.9504 10.3506 30.7787 10.1765L30.5066 9.90033H20.4049H10.3033L10.0311 10.1765ZM2.66151 16.2005C2.66151 17.0243 2.6166 17.6631 2.55871 17.6631C2.38549 17.6631 2.00323 17.0945 1.8676 16.6354C1.77035 16.306 1.77035 16.0951 1.8676 15.7657C2.00323 15.3066 2.38549 14.738 2.55871 14.738C2.6166 14.738 2.66151 15.3768 2.66151 16.2005ZM10.0311 15.5767C9.85945 15.7507 9.75887 15.9814 9.75887 16.2005C9.75887 16.4197 9.85945 16.6503 10.0311 16.8244L10.3033 17.1006H20.4049H30.5066L30.7787 16.8244C30.9504 16.6503 31.0509 16.4197 31.0509 16.2005C31.0509 15.9814 30.9504 15.7507 30.7787 15.5767L30.5066 15.3005H20.4049H10.3033L10.0311 15.5767ZM10.0311 20.9769C9.85945 21.1509 9.75887 21.3816 9.75887 21.6007C9.75887 21.8199 9.85945 22.0505 10.0311 22.2246L10.3033 22.5007H20.4049H30.5066L30.7787 22.2246C30.9504 22.0505 31.0509 21.8199 31.0509 21.6007C31.0509 21.3816 30.9504 21.1509 30.7787 20.9769L30.5066 20.7007H20.4049H10.3033L10.0311 20.9769ZM44.8795 22.8946C45.2742 23.1751 45.3081 23.6666 44.9731 24.2467C44.8128 24.524 44.6617 24.7508 44.6369 24.7508C44.4974 24.7508 43.2495 23.9345 43.2495 23.8431C43.2495 23.668 43.7788 22.8665 43.937 22.8021C44.2206 22.6868 44.6458 22.7286 44.8795 22.8946ZM2.66151 25.2008C2.66151 26.0246 2.6166 26.6634 2.55871 26.6634C2.38549 26.6634 2.00323 26.0948 1.8676 25.6357C1.77035 25.3063 1.77035 25.0954 1.8676 24.766C2.00323 24.3069 2.38549 23.7383 2.55871 23.7383C2.6166 23.7383 2.66151 24.3771 2.66151 25.2008ZM43.6194 26.3253C43.6703 26.3732 43.6306 26.5724 43.531 26.7677L43.3499 27.1227L42.6779 26.7525C42.3082 26.5487 41.9807 26.3184 41.95 26.2406C41.9194 26.1629 41.9779 25.9699 42.0799 25.812L42.2653 25.5248L42.896 25.8815C43.243 26.0776 43.5685 26.2774 43.6194 26.3253ZM10.0311 26.3771C9.85945 26.5511 9.75887 26.7817 9.75887 27.0009C9.75887 27.2201 9.85945 27.4507 10.0311 27.6247L10.3033 27.9009H20.4049H30.5066L30.7787 27.6247C30.9504 27.4507 31.0509 27.2201 31.0509 27.0009C31.0509 26.7817 30.9504 26.5511 30.7787 26.3771L30.5066 26.1009H20.4049H10.3033L10.0311 26.3771ZM41.7102 28.3028C42.0689 28.5239 42.3624 28.7238 42.3624 28.7471C42.3624 28.7968 30.8543 48.726 30.7851 48.7964C30.7198 48.8626 29.2676 48.0056 29.3032 47.9218C29.4915 47.4779 40.8913 27.9017 40.9616 27.9014C41.0146 27.9012 41.3515 28.0818 41.7102 28.3028ZM10.0311 31.7772C9.85945 31.9513 9.75887 32.1819 9.75887 32.4011C9.75887 32.6202 9.85945 32.8509 10.0311 33.0249L10.3033 33.3011H14.1947H18.0862L18.3583 33.0249C18.53 32.8509 18.6306 32.6202 18.6306 32.4011C18.6306 32.1819 18.53 31.9513 18.3583 31.7772L18.0862 31.501H14.1947H10.3033L10.0311 31.7772ZM2.66151 33.3011C2.66151 34.1249 2.6166 34.7637 2.55871 34.7637C2.38549 34.7637 2.00323 34.1951 1.8676 33.7359C1.77035 33.4065 1.77035 33.1957 1.8676 32.8663C2.00323 32.4072 2.38549 31.8386 2.55871 31.8386C2.6166 31.8386 2.66151 32.4774 2.66151 33.3011ZM38.1483 42.4139V45.0015H36.642C35.8135 45.0015 35.1522 44.9591 35.1726 44.9072C35.2374 44.7419 38.0875 39.8263 38.1186 39.8263C38.1349 39.8263 38.1483 40.9907 38.1483 42.4139ZM29.4091 44.1015L28.8915 45.0015H17.5509H6.21019V44.1015V43.2014H18.0685H29.9269L29.4091 44.1015ZM29.1657 50.061C29.4404 50.2759 29.4408 50.2796 29.2212 50.4542C28.7228 50.8502 28.6111 50.8775 28.6128 50.6025C28.6148 50.2643 28.7298 49.8385 28.8183 49.8416C28.8569 49.843 29.0132 49.9418 29.1657 50.061Z" fill="#AC9376"/>
</svg>
