<svg width="56" height="51" viewBox="0 0 56 51" fill="none" xmlns="http://www.w3.org/2000/svg">
<path fill-rule="evenodd" clip-rule="evenodd" d="M9.78062 0.0699757C6.56364 0.511367 3.72855 2.94499 2.72573 6.12581C2.41789 7.10195 2.31222 8.94079 2.50213 10.0156C2.81226 11.7716 3.76312 13.5206 5.06394 14.7282L5.76494 15.3789L5.10825 15.4469C3.38823 15.6254 2.28782 16.9311 2.42522 18.6306C2.49633 19.5093 2.90689 20.2087 3.6383 20.6966C4.32104 21.1522 4.77218 21.2682 5.86493 21.2688L6.76274 21.2695L7.06467 22.1651C7.34264 22.9892 7.36671 23.1948 7.36671 24.7433C7.36671 26.2917 7.34264 26.4973 7.06467 27.3215L6.76274 28.2171H5.85749C4.28428 28.2171 3.38276 28.6526 2.75188 29.7178C2.49152 30.1572 2.45115 30.342 2.45115 31.0938C2.45115 31.7078 2.50727 32.0705 2.64259 32.3318C2.74783 32.535 2.83403 32.7135 2.83403 32.7286C2.83403 32.7436 2.6241 32.8779 2.36757 33.0271C1.66427 33.4362 0.788016 34.4213 0.394631 35.2452L0.0444575 35.9789L0.0125142 41.4637C-0.0174601 46.5912 -0.00597358 46.9915 0.187437 47.6085C0.718331 49.3009 2.14342 50.5723 3.87689 50.9001C4.35561 50.9907 11.1057 51.0151 29.1982 50.9916L53.8668 50.9597L54.4527 50.6377C55.4727 50.077 56.0089 49.1709 55.9917 48.0365C55.9757 46.9813 55.4031 46.0437 54.467 45.5402C53.9525 45.2635 53.7337 45.2165 52.7569 45.1734L51.6367 45.124L51.4792 44.7308C50.8643 43.1973 50.8034 40.7361 51.34 39.0999L51.6337 38.2043H52.594C53.705 38.2043 54.354 38.0211 54.9397 37.5419C55.9343 36.7284 56.2807 35.3013 55.7575 34.1731C55.4313 33.4698 54.912 32.9374 54.2497 32.6271C53.789 32.4114 53.5521 32.3944 50.5623 32.3621L47.3671 32.3276L47.6918 31.8828C47.8704 31.6382 48.1145 31.1234 48.2342 30.7389C48.4387 30.0814 48.4518 29.7234 48.4518 24.7433C48.4518 19.7208 48.4403 19.4098 48.2288 18.7307C47.8136 17.3965 46.7182 16.269 45.3055 15.7217C44.7811 15.5185 44.4031 15.4706 43.0118 15.4313C41.4778 15.3881 41.3538 15.3695 41.4465 15.1976C41.502 15.0948 41.5802 14.7648 41.6204 14.464C41.7251 13.6812 41.4572 12.8549 40.8924 12.2181C40.2627 11.5083 39.7214 11.2573 38.6884 11.1961L37.8406 11.1458L37.6742 10.5899C37.2409 9.14217 37.2279 8.07484 37.6271 6.71158L37.8371 5.99457L38.6465 5.93377C39.8603 5.84269 40.6856 5.3569 41.2284 4.41387C41.9244 3.20444 41.7456 1.89948 40.7484 0.90977C39.7499 -0.0810266 41.027 -0.00992208 24.5564 0.00864112C16.6103 0.0175428 9.96112 0.0451162 9.78062 0.0699757ZM38.9547 1.73306C39.8962 1.99251 40.2407 3.10533 39.5998 3.81724L39.2806 4.17179L31.2425 4.22607C23.5332 4.27818 23.195 4.28881 22.9741 4.48715C22.6611 4.76831 22.6611 5.42073 22.9741 5.7019C23.1942 5.89958 23.4876 5.91 29.6306 5.93833L36.0568 5.96797L35.8927 6.5354C35.6581 7.34631 35.6571 9.73098 35.891 10.5495L36.0693 11.1737L23.3626 11.173C14.9466 11.1727 10.5182 11.1346 10.2483 11.0601C9.64497 10.8939 8.95337 10.3184 8.64707 9.72761C8.31921 9.09538 8.29022 8.19913 8.57541 7.50817C8.80525 6.95128 9.60329 6.22416 10.15 6.07338C10.3863 6.00835 12.3711 5.96395 15.0644 5.96363C18.8896 5.96308 19.6315 5.93768 19.9035 5.79819C20.4747 5.50497 20.4747 4.68407 19.9035 4.39086C19.6321 4.25158 18.9065 4.22607 15.216 4.22607C12.7405 4.22607 10.598 4.2734 10.2685 4.33549C8.84157 4.60395 7.7718 5.40912 7.13019 6.69714C6.73976 7.48114 6.71756 7.58188 6.71756 8.56497C6.71756 9.5156 6.74753 9.66454 7.06904 10.3127C7.52752 11.2368 8.28639 11.9921 9.17894 12.4127L9.89001 12.7478L24.4943 12.802C38.2147 12.8531 39.1157 12.8679 39.3825 13.0478C40.0084 13.47 40.115 14.4264 39.5997 14.9986L39.2805 15.3531L24.7169 15.3815C8.51415 15.4129 9.46556 15.453 7.8662 14.6727C6.75147 14.1288 5.42046 12.8339 4.88344 11.7705C4.09984 10.2192 3.88302 8.79826 4.1948 7.25871C4.80139 4.26352 7.16542 2.09315 10.2182 1.72872C11.2897 1.60084 38.4898 1.60497 38.9547 1.73306ZM45.0317 17.3906C45.6294 17.7148 46.1546 18.2385 46.4623 18.8172L46.7561 19.3697V24.7433V30.1168L46.4597 30.6746C46.2966 30.9814 45.9587 31.4062 45.7085 31.6186C44.8129 32.3794 45.4389 32.3423 33.4999 32.3423H22.7439V31.0955V29.8487L32.945 29.8199L43.1461 29.7912L43.5144 29.5305C44.2594 29.0033 44.2899 28.8147 44.2899 24.7433C44.2899 20.6719 44.2594 20.4833 43.5144 19.956L43.1461 19.6954L24.0567 19.6411C8.56917 19.597 4.91965 19.5599 4.71519 19.4442C4.39849 19.265 4.03836 18.6885 4.03781 18.3601C4.03727 18.0218 4.31108 17.5201 4.60973 17.3126C4.83093 17.1588 6.8136 17.1449 24.7664 17.1703C43.5723 17.1971 44.6973 17.2092 45.0317 17.3906ZM42.5991 24.7433V28.1628L32.6715 28.1905L22.7439 28.2183V26.915V25.6117H25.706H28.6681L28.9879 25.2944C29.1638 25.1199 29.3076 24.9023 29.3076 24.811C29.3076 24.5028 29.0664 24.1167 28.7982 23.9953C28.6091 23.9099 25.6992 23.8748 18.8006 23.8748H9.06955L9.06386 23.522C9.0608 23.328 8.94735 22.7416 8.81181 22.219L8.56546 21.2688L25.5823 21.2963L42.5991 21.3237V24.7433ZM14.2111 26.9144V28.2171H11.3884H8.56568L8.81192 27.2672C8.94735 26.7449 9.0608 26.1586 9.06386 25.9645L9.06955 25.6117H11.6403H14.2111V26.9144ZM20.9936 32.6882V39.7647L19.915 38.7131C18.4736 37.3078 18.478 37.3078 16.9733 38.7027L15.852 39.7421V32.6769V25.6117H18.4228H20.9936V32.6882ZM14.1874 31.121L14.2183 32.3423H9.53502C4.40265 32.3423 4.55033 32.3603 4.20081 31.6897C3.97251 31.2515 3.99668 30.9147 4.28734 30.4857C4.70491 29.8693 4.84056 29.8542 9.72592 29.8781L14.1564 29.8997L14.1874 31.121ZM14.1874 35.3004L14.1564 36.5217L9.78062 36.576C6.74217 36.6136 5.33797 36.6689 5.18603 36.7566C4.84406 36.9541 4.39105 37.4684 4.26317 37.8043C4.18944 37.9977 4.14677 39.4288 4.14677 41.7052C4.14677 45.1471 4.15673 45.3209 4.3788 45.7761C4.51861 46.0627 4.78728 46.3677 5.05453 46.5432L5.49824 46.8346L29.6099 46.8888L53.7217 46.9431L53.9808 47.2421C54.5121 47.855 54.4009 48.7059 53.7326 49.1404C53.4544 49.3213 52.13 49.3314 28.7655 49.3314H4.09207L3.47049 49.0285C2.76632 48.6853 2.25249 48.1594 1.91577 47.4372C1.69151 46.9564 1.68538 46.8024 1.68538 41.6781C1.68538 36.5641 1.69195 36.3991 1.91424 35.9246C2.25905 35.1886 2.66272 34.7782 3.40289 34.4111L4.07227 34.0792H9.14525H14.2183L14.1874 35.3004ZM53.7789 34.2915C54.0188 34.4367 54.1712 34.6448 54.265 34.9553C54.3859 35.3558 54.3772 35.4529 54.1889 35.8018C53.7535 36.6087 54.1208 36.5756 45.6045 36.5757C37.3379 36.576 37.6236 36.555 37.4677 37.1714C37.3878 37.4876 37.6329 38.0352 37.9001 38.1369C37.9974 38.1739 40.7292 38.2043 43.9706 38.2043H49.8642L49.7017 38.6613C49.4778 39.2913 49.2185 40.944 49.218 41.7453C49.2174 42.5161 49.466 44.0319 49.7013 44.6938L49.8642 45.1519H27.8807H5.89709V41.6781V38.2043H10.0541H14.2111V39.8953V41.5863L14.5309 41.9036C14.9063 42.2762 15.3174 42.3134 15.7973 42.0182C15.9778 41.9073 16.6466 41.3244 17.2835 40.723L18.4414 39.6298L19.7741 40.8664C21.2286 42.2162 21.5621 42.3839 22.1718 42.071C22.6439 41.8287 22.7439 41.4156 22.7439 39.7079V38.2043H28.6391C35.1932 38.2043 34.9154 38.2357 35.0628 37.4787C35.1171 37.1999 35.0757 37.0792 34.8493 36.8545L34.5686 36.576H28.6562H22.7439V35.3276V34.0792L38.0866 34.0796C53.1009 34.0799 53.4367 34.0845 53.7789 34.2915Z" fill="#AC9376"/>
</svg>
