<svg width="44" height="56" viewBox="0 0 44 56" fill="none" xmlns="http://www.w3.org/2000/svg">
<path fill-rule="evenodd" clip-rule="evenodd" d="M21.6648 0.122957C20.8302 0.451096 1.88474 9.54839 1.59822 9.75847C1.4306 9.88151 1.19402 10.1877 1.07235 10.439C0.860225 10.8774 0.851258 11.125 0.851258 16.5693V22.2428L1.12305 22.5146C1.45507 22.8468 1.83326 22.8614 2.22019 22.5569L2.51191 22.3274V17.9609C2.51191 15.5594 2.52863 13.5946 2.549 13.5946C2.56937 13.5946 3.72762 14.1393 5.12301 14.8051L7.65993 16.0157L7.71528 22.5296L7.77064 29.0436L8.14794 29.7396C8.59111 30.5572 9.07868 31.0166 9.92439 31.4134L10.5384 31.7014H22.3844H34.2303L34.9278 31.3793C35.7839 30.9838 36.5084 30.2156 36.8261 29.3663C37.0457 28.7791 37.0534 28.5425 37.0534 22.4119V16.0654L40.0149 14.6581C43.2534 13.1191 43.6765 12.8226 43.9235 11.9182C44.0249 11.547 44.0254 11.3195 43.9257 10.9367C43.6425 9.84895 44.0774 10.0936 33.1124 4.85588C22.4852 -0.220465 22.5111 -0.209722 21.6648 0.122957ZM32.3658 6.42382C37.7586 8.99721 42.1981 11.1719 42.2315 11.2563C42.2648 11.3407 42.2467 11.4806 42.1914 11.5671C42.0858 11.7321 22.73 21.0163 22.4365 21.0428C22.3434 21.0511 17.845 18.9448 12.4403 16.362C3.83146 12.2482 2.61719 11.638 2.64565 11.4398C2.67786 11.2142 2.70853 11.2134 13.233 11.1582L23.7878 11.1028L23.9995 10.8413C24.2698 10.5074 24.2698 10.037 23.9995 9.7031L23.7878 9.44163L15.0747 9.38625L6.36152 9.33088L14.2622 5.54893C18.6076 3.46891 22.2524 1.7621 22.3618 1.7559C22.4712 1.74981 26.973 3.85043 32.3658 6.42382ZM15.6936 19.8571L21.8308 22.7973L22.4951 22.7544C23.0916 22.7159 23.6618 22.4709 28.0859 20.353C30.7956 19.0559 33.5245 17.754 34.1501 17.4598L35.2876 16.9251L35.2572 22.8736L35.2267 28.8221L34.9609 29.195C34.8147 29.3999 34.4908 29.6605 34.2413 29.7739C33.8083 29.9706 33.2653 29.9801 22.3741 29.9825L10.9607 29.9849L10.4786 29.7298C10.1491 29.5555 9.91586 29.3222 9.74161 28.9926L9.48664 28.5103V22.7137C9.48664 19.5254 9.50236 16.9169 9.52152 16.9169C9.54067 16.9169 12.3182 18.24 15.6936 19.8571ZM0.89676 24.4356C0.408528 24.7333 0.106179 25.1609 0.0190501 25.6767C-0.156647 26.7171 0.913809 27.7804 1.95913 27.6038C3.50542 27.3424 3.9259 25.2582 2.59594 24.4471C2.13107 24.1636 1.35145 24.1582 0.89676 24.4356ZM1.50998 34.83C1.2807 35.1174 1.27074 35.2094 1.33296 36.4635C1.78753 45.636 8.44984 53.4953 17.4665 55.4958C25.9225 57.3719 34.5055 53.9184 39.3117 46.7061C41.39 43.5875 42.6997 39.3976 42.6997 35.868C42.6997 35.1113 42.6687 34.9779 42.4435 34.7662L42.1872 34.5255H21.9701H1.75299L1.50998 34.83ZM10.8962 37.0172C10.9695 39.2297 11.3677 41.9922 11.9484 44.3157C12.2558 45.5458 12.2827 45.7578 12.1416 45.8398C11.1829 46.396 9.78556 47.3278 9.13348 47.8457L8.32773 48.4856L7.77241 47.8582C6.23642 46.1229 4.6505 43.3566 3.95723 41.2033C3.57849 40.0271 3.22377 38.2812 3.11218 37.0435L3.03468 36.1838L6.9526 36.2129L10.8705 36.242L10.8962 37.0172ZM21.1112 39.7623V43.3379L19.7629 43.4798C18.2729 43.6366 15.9322 44.1867 14.7653 44.6543C14.35 44.8208 13.9896 44.9363 13.9643 44.911C13.8524 44.799 13.2361 42.0951 13.036 40.8379C12.7984 39.3453 12.5525 36.4419 12.6504 36.2836C12.6833 36.2303 14.6005 36.1866 16.9107 36.1866H21.1112V39.7623ZM31.3509 37.2664C31.201 39.589 30.7963 42.185 30.2938 44.048C30.0951 44.7849 30.0183 44.9355 29.8711 44.8769C28.1644 44.1967 26.0251 43.6719 24.1714 43.4787L22.8826 43.3442V39.7655V36.1866H27.1515H31.4206L31.3509 37.2664ZM40.9283 36.5151C40.9283 37.285 40.5568 39.4066 40.2129 40.6007C39.4592 43.2179 38.2154 45.5156 36.3822 47.6769C35.7049 48.4756 35.6994 48.4792 35.4474 48.286C35.3079 48.1791 34.827 47.8114 34.3786 47.4686C33.9302 47.1258 33.1654 46.6066 32.6791 46.3147C32.1926 46.0229 31.7769 45.7705 31.7551 45.7539C31.7332 45.7372 31.8427 45.2349 31.9982 44.6374C32.5902 42.3642 33.0663 39.199 33.0694 37.5162C33.0702 37.0591 33.101 36.5729 33.1376 36.4358L33.2044 36.1866H37.0664H40.9283V36.5151ZM21.1112 49.6422C21.1112 53.7656 21.0963 54.1274 20.9255 54.1274C20.8235 54.1274 20.3229 53.9255 19.8132 53.6788C18.6936 53.1367 17.387 51.9047 16.4716 50.5282C15.7743 49.4795 14.6857 47.2787 14.6557 46.8568C14.6359 46.5775 14.6975 46.5372 15.6864 46.1814C17.2319 45.6252 19.2706 45.1998 20.53 45.1705L21.1112 45.157V49.6422ZM24.9307 45.3249C26.206 45.5169 27.1896 45.7723 28.5489 46.2642L29.5101 46.6122L29.1461 47.4627C27.8171 50.568 26.1077 52.7227 24.2259 53.664C22.7372 54.4088 22.8826 54.8439 22.8826 49.6422V45.157L23.3531 45.1577C23.6118 45.158 24.3218 45.2333 24.9307 45.3249ZM13.2935 48.4463C13.9493 49.9959 15.0971 51.7954 16.2387 53.0638C16.6934 53.569 16.7129 53.571 15.0775 52.9457C13.4254 52.3142 11.1142 50.9781 10.0022 50.0119L9.57676 49.6422L10.377 49.0451C11.1847 48.4424 12.6817 47.4827 12.814 47.4827C12.8534 47.4827 13.0692 47.9162 13.2935 48.4463ZM31.7296 47.7753C32.3679 48.143 33.5649 48.9761 34.0329 49.3783L34.3891 49.6844L33.7008 50.2298C32.2204 51.4029 30.2441 52.4994 28.5011 53.1147C27.9684 53.3028 27.5324 53.4292 27.5324 53.3957C27.5324 53.3621 27.7761 53.052 28.074 52.7066C29.0856 51.5335 30.131 49.7415 30.9437 47.7872C31.0133 47.6198 31.1044 47.4827 31.1461 47.4827C31.1877 47.4827 31.4503 47.6143 31.7296 47.7753Z" fill="#AC9376"/>
</svg>
