<svg width="21" height="10" viewBox="0 0 21 10" fill="none" xmlns="http://www.w3.org/2000/svg">
<path d="M19.5122 0.224199L10.5407 8.19409L1.56921 0.224199C1.40892 0.0815158 1.19374 0.00163574 0.969676 0.00163574C0.745609 0.00163574 0.530431 0.0815158 0.370139 0.224199C0.292527 0.293501 0.230868 0.376219 0.188775 0.46751C0.146681 0.558801 0.125 0.656829 0.125 0.755852C0.125 0.854875 0.146681 0.952903 0.188775 1.04419C0.230868 1.13548 0.292527 1.2182 0.370139 1.28751L9.91426 9.76779C10.0819 9.91667 10.3067 10 10.5407 10C10.7748 10 10.9996 9.91667 11.1672 9.76779L20.7113 1.28914C20.7895 1.21979 20.8516 1.13687 20.894 1.04527C20.9364 0.953679 20.9583 0.85527 20.9583 0.755852C20.9583 0.656435 20.9364 0.558025 20.894 0.466431C20.8516 0.374838 20.7895 0.291916 20.7113 0.222563C20.551 0.0798793 20.3358 0 20.1118 0C19.8877 0 19.6725 0.0798793 19.5122 0.222563V0.224199Z" fill="#AC9376"/>
</svg>
