<svg width="20" height="20" viewBox="0 0 20 20" fill="none" xmlns="http://www.w3.org/2000/svg">
<path fill-rule="evenodd" clip-rule="evenodd" d="M8.77583 0.0658725C6.21867 0.375937 3.76221 1.74747 2.17535 3.75112C1.07072 5.14589 0.36513 6.7582 0.0809278 8.53688C-0.0269759 9.21233 -0.0269759 10.8031 0.0809278 11.4786C0.539584 14.349 2.11468 16.8065 4.50371 18.379C5.68753 19.1583 7.02882 19.6719 8.51849 19.9164C9.19752 20.0278 10.7803 20.0279 11.4597 19.9164C12.5577 19.7363 13.4301 19.4611 14.401 18.9884C17.4357 17.511 19.5378 14.5369 19.9324 11.1622C20.4929 6.37025 17.5151 1.83032 12.8864 0.419799C11.6413 0.040407 10.0886 -0.0933307 8.77583 0.0658725ZM10.5354 1.24967C11.2005 1.52996 11.8021 2.21419 12.3535 3.31747C12.6873 3.98545 13.0581 4.97711 12.9969 5.03836C12.8764 5.1588 7.1009 5.15796 6.98044 5.03744C6.91477 4.97176 7.50701 3.46679 7.81597 2.91423C8.027 2.53686 8.53197 1.89386 8.80476 1.65518C9.04308 1.44667 9.40832 1.24071 9.6499 1.17863C9.85398 1.12616 10.3336 1.16466 10.5354 1.24967ZM7.11719 1.8961C6.62201 2.65615 6.12894 3.72979 5.90233 4.54143C5.84838 4.73462 5.78881 4.91042 5.76989 4.93207C5.72704 4.98124 3.95629 4.80799 3.08419 4.66933L2.91781 4.6429L3.12444 4.39457C4.14119 3.17297 5.50412 2.20269 6.93185 1.68403C7.15262 1.60386 7.33769 1.53725 7.34323 1.53607C7.34871 1.53484 7.247 1.69689 7.11719 1.8961ZM13.5721 1.8982C14.7762 2.41941 15.9582 3.31861 16.8538 4.39457L17.0604 4.6429L16.894 4.66929C15.985 4.81365 14.2524 4.98269 14.2073 4.93145C14.1885 4.91011 14.1086 4.68523 14.0297 4.43167C13.7307 3.47035 13.3141 2.56092 12.8665 1.89206L12.6324 1.5423L12.9241 1.64311C13.0845 1.69856 13.3761 1.81333 13.5721 1.8982ZM3.29451 5.85725C3.75325 5.91767 4.43461 5.9985 4.80863 6.03687C5.18265 6.07525 5.49328 6.11125 5.49894 6.11687C5.50456 6.12253 5.47054 6.35322 5.4233 6.62952C5.30302 7.33333 5.21496 8.12627 5.17852 8.83325L5.14744 9.43696H3.14991H1.15241L1.17889 9.09668C1.24667 8.22612 1.58416 7.02283 1.99984 6.16943C2.21631 5.72496 2.23461 5.7013 2.34445 5.72373C2.40823 5.73677 2.83577 5.79688 3.29451 5.85725ZM17.9745 6.16561C18.3951 7.03126 18.7316 8.22691 18.7993 9.09668L18.8258 9.43696H16.8283H14.8308L14.7997 8.83325C14.7633 8.12627 14.6752 7.33333 14.5549 6.62952C14.5077 6.35322 14.4737 6.12253 14.4793 6.11687C14.4849 6.11125 14.7956 6.07533 15.1696 6.03705C15.8918 5.96315 17.5319 5.75508 17.6056 5.72799C17.7224 5.68505 17.7663 5.73704 17.9745 6.16561ZM8.54566 6.2791C9.93937 6.32626 12.4754 6.28463 13.109 6.20415L13.3095 6.17869L13.3816 6.58943C13.526 7.41262 13.6766 8.79132 13.6766 9.28965V9.43696H9.98344H6.29031L6.32056 8.94301C6.36463 8.22339 6.46489 7.34093 6.57302 6.7211L6.66766 6.17856L6.86872 6.20385C6.97935 6.21777 7.73397 6.25162 8.54566 6.2791ZM5.17852 11.1822C5.21496 11.8892 5.30302 12.6821 5.4233 13.386C5.47054 13.6623 5.50456 13.8929 5.49894 13.8986C5.49328 13.9042 5.18265 13.9402 4.80863 13.9786C4.12662 14.0486 2.56122 14.2474 2.34511 14.2916C2.2361 14.3138 2.21723 14.2892 1.99909 13.8408C1.58113 12.9817 1.2468 11.7905 1.17889 10.9188L1.15241 10.5785H3.14991H5.14744L5.17852 11.1822ZM13.6581 11.0725C13.6163 11.7631 13.5198 12.6087 13.4071 13.2725L13.3112 13.837L13.1098 13.8112C12.999 13.797 12.2431 13.7632 11.4299 13.7361C10.0337 13.6894 7.49968 13.7312 6.86841 13.8114L6.66701 13.837L6.57113 13.2725C6.4584 12.6087 6.36195 11.7631 6.32016 11.0725L6.29031 10.5785H9.98911H13.6879L13.6581 11.0725ZM18.8128 10.7717C18.8128 11.0258 18.6592 11.9192 18.5441 12.3348C18.4127 12.8088 18.1741 13.436 17.9461 13.9067C17.7604 14.2902 17.7413 14.3136 17.633 14.2913C17.4123 14.2458 15.8887 14.0521 15.1917 13.9809C14.8057 13.9415 14.4852 13.9045 14.4794 13.8987C14.4736 13.8929 14.5077 13.6622 14.5551 13.3859C14.666 12.7398 14.7639 11.8469 14.8016 11.1383L14.8314 10.5785H16.8221H18.8128V10.7717ZM12.3896 14.919C12.7079 14.9353 12.98 14.9602 12.9943 14.9745C13.0654 15.0457 12.4267 16.6551 12.1313 17.1488C11.5909 18.0523 11.0085 18.6109 10.4132 18.7967C9.94951 18.9415 9.55933 18.8698 9.06727 18.5493C8.54562 18.2095 8.08402 17.6171 7.62471 16.698C7.28427 16.0168 6.9203 15.0381 6.98378 14.9746C7.05942 14.899 11.1725 14.8567 12.3896 14.919ZM5.97112 15.6497C6.30897 16.6866 6.66121 17.4503 7.11306 18.1255L7.34854 18.4773L7.03361 18.3638C5.48985 17.8074 4.17855 16.8875 3.12524 15.6218L2.91939 15.3744L3.06303 15.3491C3.21308 15.3227 4.44431 15.1714 5.05047 15.105C5.24362 15.0838 5.48792 15.0693 5.59341 15.0727L5.78516 15.0789L5.97112 15.6497ZM15.0438 15.1227C15.6916 15.1904 16.5994 15.3001 16.894 15.3464L17.0604 15.3726L16.8538 15.6209C15.8337 16.8465 14.4148 17.8515 13.0095 18.3437L12.6277 18.4775L12.8619 18.1173C13.3542 17.3604 13.7997 16.3986 14.0522 15.5475C14.1143 15.3381 14.1732 15.142 14.1829 15.1118C14.2055 15.0419 14.2786 15.0428 15.0438 15.1227Z" fill="#AC9376"/>
</svg>
