<svg width="12" height="10" viewBox="0 0 12 10" fill="none" xmlns="http://www.w3.org/2000/svg">
<path d="M2.7106 3.31507H0.288812V9.98655H2.7106V3.31507Z" fill="#AC9376"/>
<path d="M2.30345 0.201635C2.07264 0.0701661 1.80139 3.99915e-06 1.52392 1.70346e-10C1.33878 -2.66581e-06 1.15547 0.0312427 0.984521 0.0919395C0.813575 0.152636 0.658369 0.241586 0.52783 0.353675C0.397291 0.465763 0.293995 0.598778 0.223882 0.74507C0.153769 0.891361 0.118222 1.04804 0.119286 1.2061C0.120881 1.44299 0.204615 1.67416 0.359925 1.87046C0.515234 2.06677 0.735162 2.2194 0.991962 2.30911C1.24876 2.39882 1.53093 2.42158 1.80287 2.37454C2.07481 2.32749 2.32434 2.21274 2.51997 2.04475C2.71561 1.87677 2.84859 1.66308 2.90213 1.43064C2.95568 1.19821 2.9274 0.957443 2.82085 0.738716C2.7143 0.51999 2.53427 0.333104 2.30345 0.201635Z" fill="#AC9376"/>
<path d="M6.59803 3.31473H4.26504L4.25697 10H6.67876V6.69872C6.67876 5.83032 6.8725 4.98949 8.13183 4.98949C9.39116 4.98949 9.39117 5.98884 9.39117 6.76074V9.98622H11.813V6.32655C11.813 4.52773 11.3205 3.14932 8.89874 3.14932C8.43716 3.1339 7.97934 3.22577 7.57414 3.41512C7.16894 3.60448 6.83157 3.88422 6.59803 4.22448V3.31473Z" fill="#AC9376"/>
</svg>
