<svg width="25" height="26" viewBox="0 0 25 26" fill="none" xmlns="http://www.w3.org/2000/svg">
<path fill-rule="evenodd" clip-rule="evenodd" d="M8.68846 0.55319C6.51801 0.827562 4.4661 1.83634 2.90863 3.39475C-0.0381376 6.34329 -0.83321 10.8131 0.925493 14.544C2.37878 17.627 5.27705 19.7601 8.60548 20.1966C11.0752 20.5205 13.604 19.8857 15.6228 18.4352C15.8627 18.2628 16.0763 18.1218 16.0973 18.1218C16.1184 18.1218 17.7514 19.7371 19.7263 21.7115C23.5109 25.495 23.5151 25.4987 23.952 25.5C24.1677 25.5007 24.5894 25.3233 24.7186 25.1777C24.8594 25.019 25 24.6558 25 24.4508C25 24.0143 24.9964 24.0103 21.2143 20.2225C19.2412 18.2465 17.6268 16.6147 17.6268 16.5964C17.6268 16.5781 17.7695 16.3613 17.944 16.1147C19.1576 14.3989 19.7725 12.4849 19.775 10.4146C19.7783 7.73661 18.7516 5.25944 16.8581 3.37623C15.367 1.89323 13.5265 0.953262 11.4237 0.600743C10.7604 0.489509 9.3817 0.465561 8.68846 0.55319ZM11.0329 2.65521C13.2603 3.01315 15.1618 4.21791 16.3688 6.03613C17.2667 7.38844 17.679 8.7408 17.6845 10.351C17.6872 11.1264 17.6318 11.5963 17.454 12.3072C16.7664 15.0564 14.5632 17.2609 11.8158 17.9489C11.1052 18.1268 10.6357 18.1822 9.8607 18.1795C8.25146 18.174 6.89992 17.7614 5.54842 16.8631C3.39145 15.4293 2.09559 12.9994 2.0948 10.3871C2.09441 9.07303 2.36378 7.97198 2.97511 6.78852C3.96287 4.87638 5.71669 3.45301 7.8337 2.84532C8.72632 2.58913 10.1101 2.50688 11.0329 2.65521Z" fill="#AC9376"/>
</svg>
