<svg width="20" height="20" viewBox="0 0 20 20" fill="none" xmlns="http://www.w3.org/2000/svg">
<path fill-rule="evenodd" clip-rule="evenodd" d="M9.05018 0.0242796C5.91861 0.349839 3.17863 2.05086 1.51138 4.70453C-0.421637 7.78128 -0.507114 11.7906 1.29337 14.9321C2.24104 16.5855 3.63112 17.945 5.27184 18.823C6.66787 19.5701 8.20899 19.9821 9.6561 19.9952L10.1842 20L10.1942 16.1159L10.2042 12.2318H9.12818H8.0522V10.9801V9.72845L9.11821 9.71804L10.1842 9.70763L10.2064 8.39663C10.2265 7.20667 10.2365 7.0567 10.3148 6.77255C10.6127 5.6913 11.3314 4.97197 12.414 4.67154C12.6956 4.59339 12.8192 4.58454 13.6463 4.58341C14.1519 4.5827 14.7372 4.59675 14.947 4.6146L15.3285 4.64704V5.77517V6.9033L14.3994 6.91637C13.4756 6.92932 13.4691 6.93003 13.2683 7.03577C12.8373 7.26283 12.7857 7.44472 12.7857 8.73549V9.7272H14.0179C14.6957 9.7272 15.2501 9.74043 15.2501 9.75655C15.25 9.77268 15.1796 10.3219 15.0936 10.977C15.0076 11.6322 14.9373 12.1825 14.9373 12.2C14.9373 12.2175 14.4532 12.2318 13.8615 12.2318H12.7857V15.93C12.7857 17.964 12.7925 19.6282 12.8009 19.6282C12.8755 19.6282 13.8066 19.276 14.1591 19.1144C15.3357 18.5751 16.2493 17.9257 17.1873 16.962C18.0035 16.1235 18.5101 15.3985 19.0298 14.3255C19.4918 13.3715 19.8071 12.3077 19.9517 11.2143C20.0161 10.7276 20.0161 9.22135 19.9517 8.76841C19.6229 6.45439 18.6677 4.5076 17.0837 2.92297C15.5321 1.37074 13.598 0.402749 11.3969 0.0767198C10.917 0.00561247 9.52814 -0.025382 9.05018 0.0242796Z" fill="#AC9376"/>
</svg>
