<svg width="21" height="20" viewBox="0 0 21 20" fill="none" xmlns="http://www.w3.org/2000/svg">
<path fill-rule="evenodd" clip-rule="evenodd" d="M9.52433 0.0242827C6.39504 0.349687 3.65251 2.05272 1.9865 4.70512C-0.37564 8.46582 0.0652214 13.4327 3.05163 16.7046C4.70438 18.5154 6.77136 19.598 9.2501 19.951C9.71286 20.0169 11.2507 20.0161 11.7339 19.9497C13.9977 19.6384 16.0252 18.6344 17.5672 17.0609C18.0732 16.5445 18.181 16.421 18.5167 15.9733C19.517 14.6392 20.1719 13.0128 20.4246 11.2353C20.4901 10.7748 20.4901 9.22978 20.4246 8.76951C20.256 7.58456 19.9495 6.57496 19.4577 5.58477C18.9367 4.53568 18.402 3.78777 17.5698 2.94388C16.026 1.37843 14.093 0.40597 11.8708 0.0767294C11.391 0.00561317 10.0022 -0.0253852 9.52433 0.0242827ZM6.94233 4.35059C7.21946 4.44785 7.55154 4.78684 7.64831 5.07123C7.87451 5.73609 7.56629 6.4386 6.94663 6.67058C6.21644 6.94397 5.47111 6.71692 5.14094 6.12051C5.03494 5.92897 5.02571 5.88106 5.02571 5.52094C5.02571 5.19244 5.03956 5.10367 5.11184 4.96845C5.29576 4.62449 5.56635 4.4066 5.94213 4.29991C6.17255 4.23451 6.68566 4.26049 6.94233 4.35059ZM14.3741 7.71462C14.7707 7.82237 15.207 8.07478 15.4889 8.35948C15.7904 8.66399 15.9706 8.95557 16.1221 9.38396C16.3395 9.99864 16.3494 10.1457 16.3494 12.7473V15.1297H15.1369H13.9243L13.9236 12.9868C13.9231 11.2953 13.9114 10.7891 13.8679 10.5839C13.767 10.1077 13.5763 9.83284 13.2282 9.66212C12.9181 9.50998 12.4809 9.50705 12.1641 9.65492C11.8822 9.78654 11.6474 10.028 11.4898 10.3482L11.3623 10.6073L11.3497 12.8685L11.3371 15.1297H10.1274H8.91762V11.4506V7.77145H10.1302H11.3427L11.344 8.29005L11.3452 8.80865L11.4443 8.69123C11.4988 8.62665 11.6122 8.49181 11.6964 8.39154C11.9799 8.05361 12.5452 7.74445 13.045 7.65399C13.3217 7.60394 14.0968 7.63928 14.3741 7.71462ZM7.57814 11.4603L7.58811 15.1297H6.3558H5.1235V11.4767C5.1235 9.46748 5.13546 7.81165 5.15013 7.79697C5.16476 7.78233 5.71483 7.77501 6.37247 7.78069L7.56816 7.79102L7.57814 11.4603Z" fill="#AC9376"/>
</svg>
