<svg width="21" height="20" viewBox="0 0 21 20" fill="none" xmlns="http://www.w3.org/2000/svg">
<path fill-rule="evenodd" clip-rule="evenodd" d="M10.2046 0.0188202C8.75434 0.157796 7.65193 0.466308 6.44714 1.07044C5.48999 1.55036 4.71147 2.11998 3.88949 2.94176C3.01044 3.82067 2.45892 4.59246 1.93313 5.67964C1.3168 6.95391 1.00533 8.22188 0.953925 9.666C0.894587 11.3328 1.2374 12.9191 1.97913 14.4103C2.50165 15.4607 3.03851 16.2038 3.88949 17.0546C4.74986 17.9148 5.49648 18.4519 6.54975 18.9685C7.28468 19.329 7.75919 19.5044 8.50424 19.6913C10.4593 20.1815 12.4201 20.0875 14.3302 19.4119C14.9092 19.2072 15.9199 18.7007 16.4395 18.355C17.8662 17.4059 19.0452 16.0953 19.8259 14.5908C20.5322 13.2296 20.8856 11.8791 20.9408 10.3304C21.0001 8.66359 20.6573 7.07725 19.9156 5.58612C19.4285 4.607 18.8863 3.83963 18.125 3.05201C17.2808 2.17853 16.4527 1.57588 15.345 1.02866C14.1871 0.456694 13.1082 0.151386 11.8269 0.0330069C11.4286 -0.00376918 10.5233 -0.0117028 10.2046 0.0188202ZM13.8333 5.56556C14.1313 5.66546 14.4321 5.83816 14.6664 6.04385L14.8033 6.16398L15.0741 6.09371C15.3998 6.00922 15.831 5.84093 16.0584 5.70958C16.1504 5.65643 16.2245 5.63317 16.2245 5.65748C16.2245 5.74221 15.9951 6.15468 15.8362 6.35564C15.7479 6.46726 15.5875 6.62445 15.4797 6.70492C15.3719 6.78539 15.3008 6.85695 15.3218 6.86394C15.383 6.8843 16.1482 6.68971 16.3534 6.60162L16.5409 6.52108L16.4707 6.64235C16.3726 6.81169 15.7553 7.45932 15.569 7.58836L15.4147 7.69529L15.3917 8.28981C15.354 9.26306 15.1399 10.0757 14.6793 10.9948C13.7431 12.8625 12.0698 14.1183 10.0748 14.4504C8.59665 14.6965 7.25509 14.5065 5.9634 13.8683C5.25865 13.5201 5.25822 13.5359 5.9729 13.5301C6.49573 13.5258 6.64548 13.5102 6.96352 13.4265C7.59388 13.2607 8.17612 12.9948 8.59579 12.6811L8.72647 12.5835L8.53716 12.559C8.25676 12.5228 7.86813 12.3927 7.62472 12.2537C7.3337 12.0874 6.92838 11.6714 6.77893 11.3856C6.56187 10.9705 6.54631 10.9948 7.02907 10.9948C7.59939 10.9948 7.68038 10.9573 7.35054 10.8459C7.21111 10.7988 7.00906 10.7091 6.90156 10.6465C6.62746 10.4869 6.22159 10.0619 6.06992 9.77574C5.93205 9.51557 5.7875 9.014 5.7875 8.79576C5.7875 8.68203 5.79817 8.66574 5.85591 8.69118C6.04956 8.77645 6.45343 8.89734 6.61057 8.91707L6.78867 8.93943L6.4926 8.6383C6.02004 8.15775 5.81217 7.65113 5.8158 6.98889C5.81779 6.62398 5.86204 6.41563 6.00679 6.08969L6.10241 5.87443L6.59971 6.36471C7.53349 7.28525 8.65169 7.89109 9.87239 8.13789C10.1823 8.20054 10.821 8.27468 10.8449 8.25076C10.8517 8.24393 10.8419 8.14626 10.8231 8.03374C10.7523 7.6115 10.8816 6.98721 11.1262 6.57001C11.4488 6.01954 12.1143 5.56294 12.7354 5.46586C13.0609 5.41494 13.5041 5.45519 13.8333 5.56556Z" fill="#AC9376"/>
</svg>
