<svg width="12" height="9" viewBox="0 0 12 9" fill="none" xmlns="http://www.w3.org/2000/svg">
<path d="M11.9052 1.00421C11.4825 1.18942 10.9473 1.36326 10.4676 1.42105C10.9554 1.13495 11.7293 0.539053 11.9052 0C11.4495 0.264789 10.6253 0.547579 10.0876 0.649895C9.65827 0.199895 9.04588 0 8.36735 0C7.06397 0 6.15496 1.09184 6.15496 2.36842V3.31579C4.23822 3.31579 2.36941 1.87247 1.20643 0.473684C0.996143 0.82624 0.885742 1.22825 0.886813 1.63753C0.886813 2.49916 1.68753 3.37358 2.32149 3.78947C1.93479 3.77763 1.2026 3.48584 0.883938 3.31579V3.34279C0.883938 4.464 1.67986 5.22521 2.75851 5.43742C2.56156 5.49095 2.32149 5.68421 1.39762 5.68421C1.69759 6.60079 3.20558 7.08537 4.23822 7.10526C3.43032 7.72437 1.98989 8.05263 0.883938 8.05263C0.692744 8.05263 0.58924 8.06305 0.404755 8.04174C1.44842 8.69542 2.90609 9 4.23822 9C8.57819 9 10.9468 5.72305 10.9468 2.66684C10.9468 2.56642 10.9434 2.23011 10.9382 2.13158C11.402 1.80853 11.5899 1.47032 11.9052 1.00421Z" fill="#AC9376"/>
</svg>
