<svg width="21" height="21" viewBox="0 0 21 21" fill="none" xmlns="http://www.w3.org/2000/svg">
<path d="M10.2622 1.89996C11.4192 0.749091 12.9804 0.0963816 14.6122 0.0813212C16.244 0.0662608 17.817 0.690044 18.9951 1.81937C20.1731 2.94869 20.8627 4.49397 20.9165 6.12499C20.9703 7.756 20.384 9.34337 19.283 10.5479L19.0861 10.7531L9.91946 19.9177L9.88196 19.9489C9.16828 20.5915 8.24156 20.9464 7.28122 20.945C6.32088 20.9435 5.39524 20.5858 4.68349 19.9411C3.97174 19.2964 3.52452 18.4105 3.42841 17.455C3.33229 16.4995 3.59413 15.5423 4.16321 14.7687C4.18802 14.7207 4.21769 14.6753 4.25176 14.6333L4.30801 14.5708L4.39863 14.4791L4.54551 14.325L4.54863 14.3281L12.2945 6.56351C12.4266 6.43104 12.6019 6.3504 12.7885 6.33625C12.9751 6.32211 13.1605 6.3754 13.3111 6.48642L13.3986 6.56246C13.5311 6.69461 13.6117 6.86991 13.6259 7.05649C13.64 7.24306 13.5867 7.42852 13.4757 7.57913L13.4007 7.66663L5.48926 15.5968C5.12309 16.0461 4.9381 16.616 4.97061 17.1947C5.00311 17.7733 5.25076 18.3189 5.66493 18.7244C6.0791 19.1298 6.62987 19.3658 7.2091 19.3859C7.78832 19.4061 8.35416 19.209 8.79551 18.8333L17.9965 9.63538C18.8491 8.76823 19.3315 7.6038 19.3419 6.38777C19.3523 5.17175 18.89 3.99922 18.0524 3.11758C17.2148 2.23595 16.0675 1.71414 14.8525 1.66227C13.6376 1.6104 12.45 2.03251 11.5403 2.83955L11.3653 3.00621L11.3528 3.0208L1.41842 12.9541C1.27902 13.0939 1.09187 13.1757 0.894594 13.1832C0.697319 13.1906 0.50455 13.123 0.355045 12.9941C0.205539 12.8652 0.110384 12.6845 0.0887094 12.4882C0.0670351 12.292 0.12045 12.0949 0.238213 11.9364L0.314255 11.8489L10.2611 1.901H10.2622V1.89996Z" fill="#AC9376"/>
</svg>
